<?xml version="1.0" encoding="UTF-8" standalone="no"?>
<svg
   xmlns:dc="http://purl.org/dc/elements/1.1/"
   xmlns:cc="http://creativecommons.org/ns#"
   xmlns:rdf="http://www.w3.org/1999/02/22-rdf-syntax-ns#"
   xmlns:svg="http://www.w3.org/2000/svg"
   xmlns="http://www.w3.org/2000/svg"
   xmlns:sodipodi="http://sodipodi.sourceforge.net/DTD/sodipodi-0.dtd"
   xmlns:inkscape="http://www.inkscape.org/namespaces/inkscape"
   enable-background="new 0 0 512 512"
   height="512px"
   id="Layer_1"
   version="1.1"
   viewBox="0 0 512 512"
   width="512px"
   xml:space="preserve"
   inkscape:version="0.91 r13725"
   sodipodi:docname="all.svg"><metadata
     id="metadata9"><rdf:RDF><cc:Work
         rdf:about=""><dc:format>image/svg+xml</dc:format><dc:type
           rdf:resource="http://purl.org/dc/dcmitype/StillImage" /></cc:Work></rdf:RDF></metadata><defs
     id="defs7" /><sodipodi:namedview
     pagecolor="#ffffff"
     bordercolor="#666666"
     borderopacity="1"
     objecttolerance="10"
     gridtolerance="10"
     guidetolerance="10"
     inkscape:pageopacity="0"
     inkscape:pageshadow="2"
     inkscape:window-width="1920"
     inkscape:window-height="1003"
     id="namedview5"
     showgrid="false"
     inkscape:zoom="0.921875"
     inkscape:cx="-64.928352"
     inkscape:cy="175.47085"
     inkscape:window-x="-9"
     inkscape:window-y="-9"
     inkscape:window-maximized="1"
     inkscape:current-layer="Layer_1" /><path
     style="fill:#424852"
     d="M 257.00977 0.74023438 C 239.70577 0.74023438 222.41275 2.4725 205.59375 5.9375 C 189.19775 9.3135 173.05577 14.294125 157.63477 20.828125 C 142.50877 27.218125 127.90767 35.149328 114.26367 44.361328 C 100.75167 53.500328 88.045953 63.971953 76.501953 75.501953 C 64.965953 87.059953 54.486375 99.744906 45.359375 113.25391 C 36.144375 126.88991 28.217172 141.50967 21.826172 156.63867 C 15.299172 172.04267 10.289687 188.1958 6.9296875 204.5918 C 3.4916875 221.3948 1.7460938 238.70139 1.7460938 256.02539 C 1.7460937 273.30239 3.4917344 290.60872 6.9277344 307.38672 C 10.287734 323.78372 15.298219 339.94323 21.824219 355.36523 C 28.215219 370.51423 36.143422 385.09061 45.357422 398.72461 C 54.485422 412.24161 64.964 424.94752 76.5 436.47852 C 88.045 448.03752 100.75072 458.52572 114.26172 467.63672 C 127.90572 476.88172 142.50681 484.78631 157.63281 491.19531 C 173.05381 497.68931 189.1958 502.73355 205.5918 506.06055 C 222.4108 509.50855 239.70381 511.25977 257.00781 511.25977 C 274.29281 511.25977 291.58548 509.50955 308.39648 506.06055 C 324.80148 502.73455 340.94428 497.68931 356.36328 491.19531 C 371.48828 484.78531 386.08861 476.88072 399.72461 467.63672 C 413.23661 458.52472 425.94228 448.03556 437.48828 436.47656 C 449.02628 424.94656 459.51077 412.24261 468.63477 398.72461 C 477.85177 385.09061 485.77892 370.51228 492.16992 355.36328 C 498.68792 339.94128 503.70869 323.78277 507.05469 307.38477 C 510.50369 290.60677 512.24895 273.30239 512.25195 256.02539 C 512.25195 238.70039 510.50759 221.3948 507.05859 204.5918 C 503.71259 188.1958 498.69183 172.04267 492.17383 156.63867 C 485.78483 141.50967 477.85667 126.88991 468.63867 113.25391 C 459.51367 99.744906 449.02819 87.059953 437.49219 75.501953 C 425.94619 63.969953 413.23952 53.500328 399.72852 44.361328 C 386.09352 35.149328 371.49219 27.220125 356.36719 20.828125 C 340.94819 14.292125 324.80244 9.3135 308.39844 5.9375 C 291.58644 2.4725 274.29477 0.74023438 257.00977 0.74023438 z M 261.8418 38.074219 C 290.25965 38.694509 317.35848 44.759315 342.10547 55.275391 C 338.87947 74.336391 326.21606 141.08906 295.53906 220.78906 C 295.05706 220.65006 294.57266 220.50713 294.09766 220.32812 C 262.9357 209.4732 236.87148 195.93833 215.23633 181.64844 C 233.95384 135.52668 249.65345 87.75734 261.8418 38.074219 z M 220.64062 41.046875 C 209.6958 79.705393 196.79486 118.00821 181.58008 156.07812 C 138.96771 118.89732 123.02734 84.15625 123.02734 84.15625 C 123.02734 84.15625 121.02148 85.649703 118.14648 87.970703 C 147.00143 64.094519 182.10728 47.520807 220.64062 41.046875 z M 378.81055 75.197266 C 400.90237 90.118621 420.09224 108.98864 435.40625 130.77734 C 428.77182 166.28731 420.44493 200.32323 410.16797 233.13477 C 388.67455 235.04617 363.2174 235.20203 336.37891 230.91016 C 364.97791 152.34316 376.59355 88.368266 378.81055 75.197266 z M 94.863281 110.33203 C 94.851281 110.37103 94.78125 110.43555 94.78125 110.43555 C 94.78125 110.43555 118.62264 152.71349 165.85547 193.42773 C 154.50936 219.10804 142.05517 244.70163 128.39453 270.24805 C 96.136582 246.75485 68.888673 219.91841 48.841797 191.16406 C 58.280364 160.85269 74.153341 133.37556 94.863281 110.33203 z M 462.96094 184.55469 C 467.0716 196.40625 470.20293 208.71408 472.22852 221.39258 C 470.86549 221.83965 464.25543 223.92821 453.83789 226.30078 C 456.97836 213.22128 459.99415 199.37977 462.96094 184.55469 z M 199.32031 218.88086 C 220.41439 232.90736 244.67567 245.45011 272.08594 254.30664 C 274.93994 255.23464 277.78978 256.10016 280.67578 256.91016 C 268.66156 284.07089 256.19913 308.15527 242.97852 331.125 C 214.65527 320.615 187.68916 307.70972 162.82227 292.91797 C 175.8307 268.69892 188.02059 244.03193 199.32031 218.88086 z M 39.216797 246.94727 C 58.474564 270.33358 80.805571 291.8486 105.5918 310.92969 C 95.17517 328.67307 84.149682 346.40352 72.474609 364.13477 C 52.558584 331.30899 39.355133 293.59081 39.019531 256.02539 C 39.019531 252.98342 39.093306 249.9589 39.216797 246.94727 z M 474.91797 258.18164 C 474.06902 295.17583 464.12344 329.78306 447.05664 360.00195 C 432.55416 361.3513 417.97047 361.90428 403.38477 361.72266 C 420.58095 330.18597 433.2962 299.41081 443.97461 263.38867 C 462.04564 260.94141 473.70732 258.44556 474.91797 258.18164 z M 323.08594 265.32227 C 349.35369 268.62366 375.47 268.80861 398.46289 267.63672 C 386.96185 299.05106 373.48637 329.37 357.74609 358.80469 C 333.09719 355.9694 308.69483 351.14784 284.92773 344.625 C 297.14538 322.12792 308.35538 299.35291 318.38867 276.57031 C 320.00267 272.80131 321.55594 269.05127 323.08594 265.32227 z M 139.44141 334.50977 C 163.74384 349.78236 189.83139 362.85496 217.24023 373.30664 C 200.89794 398.83257 183.32084 424.47693 163.99609 453.1582 C 141.51338 442.05037 118.50271 423.36892 98.451172 399.98242 C 112.73995 378.49938 126.4251 356.68688 139.44141 334.50977 z M 260.36914 387.24805 C 284.17129 393.61151 308.71663 398.0146 333.74023 400.22266 C 318.58944 424.42042 301.74229 448.0712 283.04297 471.3125 C 274.53026 472.64093 265.8479 473.55052 257.00781 473.99219 C 239.29281 473.99219 222.10681 471.83675 205.63281 467.84375 C 225.08136 442.06259 243.43845 415.01365 260.36914 387.24805 z M 418.8457 399.07422 C 398.3393 421.72151 373.00249 440.22527 344.17188 453.2168 C 357.44459 434.83535 369.12486 417.91197 379.50391 401.76562 C 392.54783 401.49353 405.67352 400.60436 418.8457 399.07422 z M 204.09961 467.48047 C 204.50261 467.55947 204.75391 467.62305 204.75391 467.62305 C 204.75391 467.62305 204.78692 467.63611 204.79492 467.66211 C 204.56192 467.57611 204.32161 467.53747 204.09961 467.48047 z "
     id="path3" /></svg>