<?xml version="1.0" ?><!DOCTYPE svg  PUBLIC '-//W3C//DTD SVG 1.1//EN'  'http://www.w3.org/Graphics/SVG/1.1/DTD/svg11.dtd'><svg enable-background="new 0 0 512 512" height="512px" id="Layer_1" version="1.1" viewBox="0 0 512 512" width="512px" xml:space="preserve" xmlns="http://www.w3.org/2000/svg" xmlns:xlink="http://www.w3.org/1999/xlink"><g><path d="M182.411,256.486c0,37.638,30.512,68.152,68.147,68.152c37.633,0,68.149-30.515,68.149-68.152   c0-37.632-30.516-68.148-68.149-68.148C212.922,188.338,182.41,218.854,182.411,256.486z" fill="#414751"/><path d="M250.558,149.725c34.618,0,61.106,11.749,80.61,37.287l3.867-0.353l166.004-3.251   C469.779,77.625,371.988,0.271,256,0.271c-37.511,0-73.062,8.285-105.193,22.813l42.613,143.482   C209.966,156.022,229.5,149.725,250.558,149.725z" fill="#414751"/><path d="M508.098,215.152l-158.07,3c4.572,11.927,7.373,24.787,7.373,38.335c0,59.004-47.84,106.78-106.842,106.78   c-1.804,0-1.334-0.243-3.104-0.307l-0.661,0.99l-99.469,123.282c33,15.565,69.765,24.496,108.677,24.496   c141.244,0,255.705-114.544,255.705-255.755C511.705,242.01,510.244,228.462,508.098,215.152z" fill="#414751"/><path d="M143.778,256.487c0-26.002,7.711-48.915,23.107-67.451L122.128,38.433   C49.128,83.472,0.294,163.91,0.294,255.975c0,90.729,47.372,170.28,118.663,215.674l93.403-115.738   C172.269,340.499,143.778,301.991,143.778,256.487z" fill="#414751"/></g></svg>