<?xml version="1.0" ?><!DOCTYPE svg  PUBLIC '-//W3C//DTD SVG 1.1//EN'  'http://www.w3.org/Graphics/SVG/1.1/DTD/svg11.dtd'><svg enable-background="new 0 0 512 512" height="512px" id="Layer_1" version="1.1" viewBox="0 0 512 512" width="512px" xml:space="preserve" xmlns="http://www.w3.org/2000/svg" xmlns:xlink="http://www.w3.org/1999/xlink"><path d="M256.074,4.957c-68.974,0-131.467,27.829-176.826,72.833c-0.563,0.456-1.021,0.58-1.646,1.144  c-4.375,4.026-8.63,9.134-12.883,14.756C27.535,137.446,5,194.042,5,255.971c0,68.35,27.368,130.282,71.687,175.575  c19.927,21.575,45.647,40.873,78.626,54.322c30.827,13.571,64.886,21.176,100.761,21.176c36.899,0,71.809-8.173,103.309-22.488  c24.518-10.548,50.404-26.39,73.67-50.568c0.184-0.227,0.455-0.339,0.625-0.566c1.707-1.768,3.354-3.688,5.002-5.503  c42.293-44.899,68.408-105.352,68.41-171.947C507.09,117.353,394.693,4.957,256.074,4.957z M437.15,168.443  c-6.469,23.325-26.908-12.945-23.902,5.962c3.002,18.907,20.926,65.169,13.004,80.603c-15.373,29.947-52.064-25.749-52.064-10.822  c0,5.455,32.109,54.344,25.219,74.86c-11.24,33.467-46.186-23.609-28.617,17.028c10.68,24.699-33.941,47.569-79.814,47.569  c0,0-81.901-7.271-67.998-19.196c13.904-11.921,18.165-9.304,23.897-11.1c6.076-1.902,19.026-8.24,25.208-18.587  c5.643-9.444,5.775-8.187,18.893-12.94c14.139-5.125,35.072-20.945,22.766-25.084c-13.072-4.396-33.135-6.607-47.842-4.068  c-15.274,2.638-31.397,22.853-41.338,23.815c-9.986,1.019-22.928-0.963-22.928-0.963s-6.023-21.8-19.927-23.782  c-13.905-1.981-24.058-44.668-11.116-44.668c12.929,0,34.566-3.705,40.523,6.319c6.988,11.762,10.035,27.246,18.055,8.851  c9.9-22.716-9.819-43.041-14.821-44.019c-4.94-1.024,24.153-23.461,31.789-31.607c9.909-10.572,34.285-23.968,4.94-22.883  c-19.854,0.734-55.68,5.735-55.68-10.212c0-15.904,18.064-31.775,26.787-38.087c31.333-22.675,33.861-29.081-11.982-14.927  c-21.721,6.706-50.573,31.832-54.553,31.832l-31.5-1.294h-17.257l-9.53-26.055c39.961-42.017,96.099-68.517,158.654-68.517  c47.276,0,90.758,15.217,126.573,40.649C411.496,101.743,444.771,140.975,437.15,168.443z" fill="#414751"/></svg>