<?xml version="1.0" ?><!DOCTYPE svg  PUBLIC '-//W3C//DTD SVG 1.1//EN'  'http://www.w3.org/Graphics/SVG/1.1/DTD/svg11.dtd'><svg enable-background="new 0 0 512 512" height="512px" id="Layer_1" version="1.1" viewBox="0 0 512 512" width="512px" xml:space="preserve" xmlns="http://www.w3.org/2000/svg" xmlns:xlink="http://www.w3.org/1999/xlink"><g><path d="M218.171,124.123c27.032-27.089,56.338-49.503,82.52-66.992c-10.596-1.793-21.465-2.743-32.545-2.743   c-108.342,0-196.463,85.415-201.249,192.543c-1.535,18.756,1.152,37.569,4.882,53.297   C118.149,213.114,218.171,124.123,218.171,124.123z" fill="#414751"/><path d="M92.201,353.982c27.316,48.988,74.332,85.459,130.401,98.455c-65.502,39.541-182.718,92.83-146.911-58.902   c0,0,4.854-14.932,16.51-39.555c-2.612-4.682-5.05-9.475-7.292-14.377c0,0-7.679-16.395-13.13-39.375   c-1.203,2.26-2.379,4.52-3.507,6.773c0,0-73.882,119.604-14.053,191.537c0,0,58.873,47.658,176.031-44.484   c-2.567-0.49-5.115-1.031-7.646-1.617c24.029-14.506,41.103-27.16,41.103-27.16c-11.638,10.857-22.784,20.383-33.457,28.779   c12.27,2.34,24.936,3.57,37.896,3.57c95.939,0,176.039-66.904,196.494-156.578H334.193c-3.807,18.813-16.611,45.324-58.33,45.324   c-64.549,0-66.419-59.416-66.419-59.416h126.403v0.121H467.91c1.18-8.777,1.99-17.758,1.99-26.832   c0-86.242-54.166-162.328-130.326-192.292C193.597,169.292,121.458,292.182,92.201,353.982z M334.439,231.165H208.036   c0,0-4.583-63.584,59.966-63.584C332.553,167.58,334.439,231.165,334.439,231.165z" fill="#414751"/><path d="M380.563,11.96c0,0-35.434,15.485-79.871,45.171c13.453,2.276,26.461,5.935,38.883,10.823   c11.598-8.051,23.658-15.966,36.201-23.704c0,0,115.152-63.175,96.898,72.74C472.674,116.99,529.002-40.884,380.563,11.96z" fill="#414751"/></g></svg>