<?xml version="1.0" ?><!DOCTYPE svg  PUBLIC '-//W3C//DTD SVG 1.1//EN'  'http://www.w3.org/Graphics/SVG/1.1/DTD/svg11.dtd'><svg enable-background="new 0 0 512 512" height="512px" id="Layer_1" version="1.1" viewBox="0 0 512 512" width="512px" xml:space="preserve" xmlns="http://www.w3.org/2000/svg" xmlns:xlink="http://www.w3.org/1999/xlink"><path d="M453.371,147.358c-11.359-31.121-26.637-57.365-45.835-79.179c-19.192-21.373-41.523-37.869-67.378-49.939  C314.303,6.617,286.881,0.318,257.5,0.23c-29.771-0.088-57.585,6.04-83.441,17.949c-26.245,12.357-48.968,29.606-67.771,52.196  C86.7,93.404,71.814,120.894,60.845,152.83c-10.969,32.381-16.454,68.335-16.454,107.856c0,38.187,5.485,72.397,16.847,103.515  c10.969,31.115,26.246,57.807,45.833,79.18c19.195,22.263,41.524,39.205,67.379,50.83c25.464,11.617,52.495,17.475,81.091,17.56  c35.258,0.108,65.813-6.46,91.668-19.704c25.857-13.242,48.186-31.824,67.382-55.744c18.021-23.036,31.731-50.084,41.522-82.025  c9.4-31.944,14.496-65.231,14.496-100.756C470.609,214.02,464.733,178.476,453.371,147.358z M364.056,346.466  c-3.919,26.633-10.579,50.592-19.589,71.879c-8.618,20.399-20.37,36.351-34.864,47.851c-14.495,11.501-31.729,17.224-52.103,17.161  c-20.761-0.064-37.999-5.887-52.102-17.477c-14.103-11.588-25.463-27.607-34.864-48.509c-9.011-20.453-15.669-44.453-19.588-71.995  c-4.309-27.541-6.269-56.855-6.269-87.938c0-72.829,9.401-129.195,28.599-169.1c19.195-39.909,47.401-59.801,84.225-59.69  c21.547,0.062,39.566,6.778,54.061,19.697c14.493,12.922,26.247,29.833,35.26,50.733c8.615,21.342,14.493,45.78,18.019,72.878  c3.526,27.098,5.484,55.079,5.484,83.494C370.323,289.204,367.971,319.837,364.056,346.466z" fill="#414751"/></svg>