<?xml version="1.0" encoding="UTF-8" standalone="no"?>
<svg
   xmlns:dc="http://purl.org/dc/elements/1.1/"
   xmlns:cc="http://creativecommons.org/ns#"
   xmlns:rdf="http://www.w3.org/1999/02/22-rdf-syntax-ns#"
   xmlns:svg="http://www.w3.org/2000/svg"
   xmlns="http://www.w3.org/2000/svg"
   xmlns:sodipodi="http://sodipodi.sourceforge.net/DTD/sodipodi-0.dtd"
   xmlns:inkscape="http://www.inkscape.org/namespaces/inkscape"
   enable-background="new 0 0 512 512"
   height="512px"
   id="Layer_1"
   version="1.1"
   viewBox="0 0 512 512"
   width="512px"
   xml:space="preserve"
   inkscape:version="0.91 r13725"
   sodipodi:docname="phantom.svg"><metadata
     id="metadata9"><rdf:RDF><cc:Work
         rdf:about=""><dc:format>image/svg+xml</dc:format><dc:type
           rdf:resource="http://purl.org/dc/dcmitype/StillImage" /><dc:title /></cc:Work></rdf:RDF></metadata><defs
     id="defs7" /><sodipodi:namedview
     pagecolor="#ffffff"
     bordercolor="#666666"
     borderopacity="1"
     objecttolerance="10"
     gridtolerance="10"
     guidetolerance="10"
     inkscape:pageopacity="0"
     inkscape:pageshadow="2"
     inkscape:window-width="1920"
     inkscape:window-height="1003"
     id="namedview5"
     showgrid="false"
     inkscape:zoom="1.3037281"
     inkscape:cx="423.6418"
     inkscape:cy="266.75839"
     inkscape:window-x="-9"
     inkscape:window-y="-9"
     inkscape:window-maximized="1"
     inkscape:current-layer="Layer_1" /><path
     style="fill:#424852;fill-opacity:1"
     d="M 266.647,7.6604274 C 197.57867,5.8957546 124.20307,46.888638 84.131701,116.66769 61.397568,156.2564 53.252788,186.82126 45.994503,259.79996 40.918481,310.83678 29.603028,372.09413 20.851795,395.93375 c -24.3607505,66.36293 -7.245685,78.73706 75.782257,54.75421 8.900628,-2.57095 30.094528,8.568 47.804458,25.14074 37.29838,34.90364 29.06873,33.3822 81.8858,15.13451 37.41341,-12.92593 46.49317,-12.92593 78.08579,0 48.61626,19.89104 60.85218,18.60956 95.62858,-10.04473 16.47273,-13.57288 42.65163,-24.67797 58.1805,-24.67797 48.38279,0 55.59602,-20.27879 32.32902,-90.96145 C 479.31561,331.15584 467.1064,274.36382 463.41698,239.07431 452.40858,133.77575 409.81542,63.661765 332.88014,24.183122 312.20629,13.574554 289.66974,8.2486516 266.647,7.6604274 Z M 168.04543,139.99608 a 45.426609,52.054134 0 0 1 41.56311,31.15595 45.426609,52.054134 0 0 1 41.54336,-31.15595 45.426609,52.054134 0 0 1 45.42209,52.05513 45.426609,52.054134 0 0 1 -45.42209,52.05514 45.426609,52.054134 0 0 1 -41.56312,-31.1367 45.426609,52.054134 0 0 1 -41.54335,31.1367 45.426609,52.054134 0 0 1 -45.44176,-52.05514 45.426609,52.054134 0 0 1 45.44176,-52.05513 z"
     id="path4163"
     inkscape:connector-curvature="0" /></svg>