<?xml version="1.0" ?><!DOCTYPE svg  PUBLIC '-//W3C//DTD SVG 1.1//EN'  'http://www.w3.org/Graphics/SVG/1.1/DTD/svg11.dtd'><svg enable-background="new 0 0 512 512" height="512px" id="Layer_1" version="1.1" viewBox="0 0 512 512" width="512px" xml:space="preserve" xmlns="http://www.w3.org/2000/svg" xmlns:xlink="http://www.w3.org/1999/xlink"><path d="M282.936,81.99c11.812-8.092,19.564-21.676,19.564-37.075C302.5,20.109,282.391,0,257.585,0  c-24.805,0-44.916,20.109-44.916,44.915c0,15.206,7.563,28.637,19.126,36.763C124.124,93.709,40.409,185.025,40.409,295.909  c0,119.067,96.524,215.591,215.59,215.591c119.067,0,215.592-96.523,215.592-215.591C471.591,185.963,389.29,95.247,282.936,81.99z   M151.89,424.111c-70.563-57.874-80.851-161.992-22.977-232.556c57.874-70.563,161.991-80.851,232.555-22.977  c0.066,0.055,0.132,0.111,0.198,0.166l-0.369,0.249l0.171-0.414l-142.44,96.306l-0.466,0.313l0,0.001h0l-66.709,156.938  l-0.174,0.407l0.001-0.001l-0.001,0.003l143.979-94.351l0.198-0.48l65.812-158.97c70.381,57.906,80.597,161.891,22.777,232.387  C326.57,471.697,222.453,481.984,151.89,424.111z M257.924,26.421c10.61,0,19.212,8.602,19.212,19.212  c0,10.61-8.601,19.212-19.212,19.212c-10.61,0-19.211-8.602-19.211-19.212C238.712,35.022,247.314,26.421,257.924,26.421z" fill="#424852"/></svg>